<?xml version="1.0" encoding="UTF-8"?>
<svg version="1.1" xmlns="http://www.w3.org/2000/svg" width="500" height="500">
<path d="M0 0 C4.95 0 9.9 0 15 0 C15 2.97 15 5.94 15 9 C17.64 9 20.28 9 23 9 C23.33 11.64 23.66 14.28 24 17 C26.31 17.33 28.62 17.66 31 18 C32 25.75 32 25.75 32 28 C38.27 28 44.54 28 51 28 C51.33 31.3 51.66 34.6 52 38 C53.35532837 38.03758423 53.35532837 38.03758423 54.73803711 38.07592773 C58.0796428 38.17087317 61.42106252 38.27011621 64.76245117 38.37231445 C66.2106424 38.4157163 67.65888654 38.45738744 69.10717773 38.49731445 C71.18489559 38.55489062 73.26234573 38.61862028 75.33984375 38.68359375 C76.59144287 38.72025146 77.84304199 38.75690918 79.13256836 38.79467773 C82 39 82 39 83 40 C83.04080783 41.99958364 83.04254356 44.00045254 83 46 C84.10540382 45.99666908 84.10540382 45.99666908 85.23313904 45.99327087 C92.16412769 45.97326797 99.09511204 45.95802587 106.02612209 45.94818783 C109.58977422 45.94296005 113.15340257 45.93586431 116.71704102 45.92456055 C120.81006097 45.91165824 124.9030558 45.90677094 128.99609375 45.90234375 C130.92418129 45.89460182 130.92418129 45.89460182 132.89122009 45.88670349 C134.66294334 45.88659019 134.66294334 45.88659019 136.47045898 45.88647461 C138.03932106 45.88314369 138.03932106 45.88314369 139.63987732 45.87974548 C142 46 142 46 143 47 C143.1572103 48.44526041 143.24893873 49.89773819 143.31297302 51.35011292 C143.35444741 52.27021873 143.3959218 53.19032454 143.43865299 54.13831234 C143.47750834 55.14140218 143.5163637 56.14449202 143.55639648 57.17797852 C143.59857772 58.21464189 143.64075895 59.25130526 143.68421841 60.31938267 C144.08513214 70.93197023 144.12755201 81.53371221 144.09765625 92.15234375 C144.09578326 94.15971338 144.09436355 96.16708348 144.09336853 98.17445374 C144.08961251 103.37079203 144.07984443 108.56710083 144.06866455 113.76342773 C144.05829864 119.10074464 144.05383894 124.43806648 144.04882812 129.77539062 C144.03821337 140.18360647 144.02122403 150.59180075 144 161 C141 162 141 162 132 161 C132 171.23 132 181.46 132 192 C129.03 192.33 126.06 192.66 123 193 C122.93941406 194.43214844 122.87882813 195.86429688 122.81640625 197.33984375 C122.73201896 199.20574041 122.64737007 201.07162524 122.5625 202.9375 C122.52318359 203.88302734 122.48386719 204.82855469 122.44335938 205.80273438 C122.40146484 206.70185547 122.35957031 207.60097656 122.31640625 208.52734375 C122.26141968 209.77632446 122.26141968 209.77632446 122.20532227 211.05053711 C122 213 122 213 121 214 C118.66702567 214.04092937 116.33294775 214.04241723 114 214 C114.00523682 214.74685059 114.01047363 215.49370117 114.01586914 216.26318359 C114.03660401 219.63378057 114.04964899 223.00436414 114.0625 226.375 C114.07087891 227.550625 114.07925781 228.72625 114.08789062 229.9375 C114.09111328 231.05898438 114.09433594 232.18046875 114.09765625 233.3359375 C114.10289307 234.37282715 114.10812988 235.4097168 114.11352539 236.47802734 C114 239 114 239 113 241 C109.04 241 105.08 241 101 241 C101.01160156 242.24136719 101.02320313 243.48273438 101.03515625 244.76171875 C101.04453868 246.40364432 101.0536384 248.04557153 101.0625 249.6875 C101.07087891 250.50412109 101.07925781 251.32074219 101.08789062 252.16210938 C101.1213412 260.42440257 101.1213412 260.42440257 100 264 C97.47524538 265.26237731 95.68799534 265.09856404 92.875 265.0625 C91.26625 265.041875 89.6575 265.02125 88 265 C87.67 268.63 87.34 272.26 87 276 C82.71 276.33 78.42 276.66 74 277 C73.93941406 278.28777344 73.87882813 279.57554687 73.81640625 280.90234375 C73.73201753 282.58074159 73.6473687 284.25912636 73.5625 285.9375 C73.52318359 286.78763672 73.48386719 287.63777344 73.44335938 288.51367188 C73.40146484 289.32255859 73.35957031 290.13144531 73.31640625 290.96484375 C73.26141968 292.08814087 73.26141968 292.08814087 73.20532227 293.23413086 C73 295 73 295 72 296 C69.64686445 296.07271741 67.29166332 296.08370868 64.9375 296.0625 C63.64714844 296.05347656 62.35679687 296.04445313 61.02734375 296.03515625 C59.52880859 296.01775391 59.52880859 296.01775391 58 296 C58.01740234 296.95712891 58.01740234 296.95712891 58.03515625 297.93359375 C58.04417969 298.75988281 58.05320312 299.58617187 58.0625 300.4375 C58.07410156 301.26121094 58.08570313 302.08492188 58.09765625 302.93359375 C58 305 58 305 57 306 C55.51361008 306.15655027 54.02050873 306.25066943 52.52734375 306.31640625 C51.62822266 306.35830078 50.72910156 306.40019531 49.80273438 306.44335938 C48.85720703 306.48267578 47.91167969 306.52199219 46.9375 306.5625 C45.98810547 306.60568359 45.03871094 306.64886719 44.06054688 306.69335938 C41.70721824 306.79979132 39.35362901 306.90043154 37 307 C36.67 310.3 36.34 313.6 36 317 C32.1273408 317.9681648 28.96388638 318.07622858 25 318 C24.67 321.3 24.34 324.6 24 328 C21.36 328 18.72 328 16 328 C15.67 331.63 15.34 335.26 15 339 C10.05 339 5.1 339 0 339 C-1 333 -1 333 -1 329 C-3.64 328.67 -6.28 328.34 -9 328 C-10.1577506 324.52674819 -10.06866652 321.63932552 -10 318 C-10.93972656 318.03480469 -10.93972656 318.03480469 -11.8984375 318.0703125 C-12.71570313 318.08835937 -13.53296875 318.10640625 -14.375 318.125 C-15.18710938 318.14820313 -15.99921875 318.17140625 -16.8359375 318.1953125 C-19 318 -19 318 -21 316 C-21 313.03 -21 310.06 -21 307 C-27.93 306.67 -34.86 306.34 -42 306 C-43.60725635 302.78548731 -43.05748185 299.56387464 -43 296 C-43.99902344 296.01160156 -44.99804688 296.02320313 -46.02734375 296.03515625 C-47.96287109 296.04869141 -47.96287109 296.04869141 -49.9375 296.0625 C-51.22527344 296.07410156 -52.51304687 296.08570313 -53.83984375 296.09765625 C-57 296 -57 296 -58 295 C-58.08651611 293.58429877 -58.10704904 292.164405 -58.09765625 290.74609375 C-58.09282227 289.46508789 -58.09282227 289.46508789 -58.08789062 288.15820312 C-58.07532227 286.81145508 -58.07532227 286.81145508 -58.0625 285.4375 C-58.05798828 284.53580078 -58.05347656 283.63410156 -58.04882812 282.70507812 C-58.03700225 280.46998686 -58.0205222 278.23502563 -58 276 C-59.39025391 276.01740234 -59.39025391 276.01740234 -60.80859375 276.03515625 C-62.00613281 276.04417969 -63.20367187 276.05320312 -64.4375 276.0625 C-65.63246094 276.07410156 -66.82742187 276.08570313 -68.05859375 276.09765625 C-71 276 -71 276 -72 275 C-72.07226502 273.14712498 -72.0838122 271.29166122 -72.0625 269.4375 C-72.05347656 268.42558594 -72.04445312 267.41367187 -72.03515625 266.37109375 C-72.02355469 265.58863281 -72.01195312 264.80617188 -72 264 C-72.75925781 264.08378906 -73.51851562 264.16757812 -74.30078125 264.25390625 C-75.29464844 264.35574219 -76.28851563 264.45757812 -77.3125 264.5625 C-78.29863281 264.66691406 -79.28476563 264.77132813 -80.30078125 264.87890625 C-83 265 -83 265 -86 264 C-86 256.41 -86 248.82 -86 241 C-89.96 241 -93.92 241 -98 241 C-98 232.09 -98 223.18 -98 214 C-100.64 214 -103.28 214 -106 214 C-107 213 -107 213 -107.11352539 211.05053711 C-107.10828857 210.2178833 -107.10305176 209.38522949 -107.09765625 208.52734375 C-107.09443359 207.62822266 -107.09121094 206.72910156 -107.08789062 205.80273438 C-107.07951172 204.85720703 -107.07113281 203.91167969 -107.0625 202.9375 C-107.05798828 201.98810547 -107.05347656 201.03871094 -107.04882812 200.06054688 C-107.03700128 197.70700469 -107.01906521 195.35349468 -107 193 C-110.3 192.67 -113.6 192.34 -117 192 C-117 181.77 -117 171.54 -117 161 C-119.64 161.33 -122.28 161.66 -125 162 C-126.32 161.67 -127.64 161.34 -129 161 C-129 123.38 -129 85.76 -129 47 C-126.34092416 45.67046208 -124.33434632 45.88013969 -121.35693359 45.88647461 C-120.17586029 45.88655014 -118.99478699 45.88662567 -117.77792358 45.88670349 C-116.49769318 45.89186478 -115.21746277 45.89702606 -113.8984375 45.90234375 C-112.59170074 45.9037587 -111.28496399 45.90517365 -109.93862915 45.90663147 C-106.46323742 45.91045106 -102.98788743 45.92027658 -99.51251221 45.93133545 C-95.96668055 45.94156157 -92.42084215 45.94613167 -88.875 45.95117188 C-81.91664951 45.96189934 -74.95832676 45.97896908 -68 46 C-68.020625 45.030625 -68.04125 44.06125 -68.0625 43.0625 C-68 40 -68 40 -67 39 C-64.70848583 38.91209025 -62.41427476 38.89305962 -60.12109375 38.90234375 C-59.09110008 38.90446617 -59.09110008 38.90446617 -58.04029846 38.90663147 C-55.83932199 38.91224521 -53.63844591 38.92479993 -51.4375 38.9375 C-49.94856917 38.94251324 -48.45963676 38.94707645 -46.97070312 38.95117188 C-43.31376925 38.96221907 -39.65689442 38.97949287 -36 39 C-36 35.37 -36 31.74 -36 28 C-32.6717269 26.33586345 -29.00266027 27.18132594 -25.375 27.4375 C-24.57320313 27.48970703 -23.77140625 27.54191406 -22.9453125 27.59570312 C-20.96320897 27.72548371 -18.98155501 27.86209735 -17 28 C-16.67 24.7 -16.34 21.4 -16 18 C-13.69 18 -11.38 18 -9 18 C-8.67 15.03 -8.34 12.06 -8 9 C-4.535 8.505 -4.535 8.505 -1 8 C-0.67 5.36 -0.34 2.72 0 0 Z " fill="#302C41" transform="translate(252,89)"/>
<path d="M0 0 C4.95 0 9.9 0 15 0 C15 2.97 15 5.94 15 9 C17.64 9 20.28 9 23 9 C23.33 11.64 23.66 14.28 24 17 C26.31 17.33 28.62 17.66 31 18 C32 25.75 32 25.75 32 28 C38.27 28 44.54 28 51 28 C51.33 31.3 51.66 34.6 52 38 C53.35532837 38.03758423 53.35532837 38.03758423 54.73803711 38.07592773 C58.0796428 38.17087317 61.42106252 38.27011621 64.76245117 38.37231445 C66.2106424 38.4157163 67.65888654 38.45738744 69.10717773 38.49731445 C71.18489559 38.55489062 73.26234573 38.61862028 75.33984375 38.68359375 C76.59144287 38.72025146 77.84304199 38.75690918 79.13256836 38.79467773 C82 39 82 39 83 40 C83.04080783 41.99958364 83.04254356 44.00045254 83 46 C84.10540382 45.99666908 84.10540382 45.99666908 85.23313904 45.99327087 C92.16412769 45.97326797 99.09511204 45.95802587 106.02612209 45.94818783 C109.58977422 45.94296005 113.15340257 45.93586431 116.71704102 45.92456055 C120.81006097 45.91165824 124.9030558 45.90677094 128.99609375 45.90234375 C130.92418129 45.89460182 130.92418129 45.89460182 132.89122009 45.88670349 C134.66294334 45.88659019 134.66294334 45.88659019 136.47045898 45.88647461 C138.03932106 45.88314369 138.03932106 45.88314369 139.63987732 45.87974548 C142 46 142 46 143 47 C143.1572103 48.44526041 143.24893873 49.89773819 143.31297302 51.35011292 C143.35444741 52.27021873 143.3959218 53.19032454 143.43865299 54.13831234 C143.47750834 55.14140218 143.5163637 56.14449202 143.55639648 57.17797852 C143.59857772 58.21464189 143.64075895 59.25130526 143.68421841 60.31938267 C144.08513214 70.93197023 144.12755201 81.53371221 144.09765625 92.15234375 C144.09578326 94.15971338 144.09436355 96.16708348 144.09336853 98.17445374 C144.08961251 103.37079203 144.07984443 108.56710083 144.06866455 113.76342773 C144.05829864 119.10074464 144.05383894 124.43806648 144.04882812 129.77539062 C144.03821337 140.18360647 144.02122403 150.59180075 144 161 C141 162 141 162 132 161 C132 171.23 132 181.46 132 192 C129.03 192.33 126.06 192.66 123 193 C122.93941406 194.43214844 122.87882813 195.86429688 122.81640625 197.33984375 C122.73201896 199.20574041 122.64737007 201.07162524 122.5625 202.9375 C122.52318359 203.88302734 122.48386719 204.82855469 122.44335938 205.80273438 C122.40146484 206.70185547 122.35957031 207.60097656 122.31640625 208.52734375 C122.26141968 209.77632446 122.26141968 209.77632446 122.20532227 211.05053711 C122 213 122 213 121 214 C118.66702567 214.04092937 116.33294775 214.04241723 114 214 C114.00523682 214.74685059 114.01047363 215.49370117 114.01586914 216.26318359 C114.03660401 219.63378057 114.04964899 223.00436414 114.0625 226.375 C114.07087891 227.550625 114.07925781 228.72625 114.08789062 229.9375 C114.09111328 231.05898438 114.09433594 232.18046875 114.09765625 233.3359375 C114.10289307 234.37282715 114.10812988 235.4097168 114.11352539 236.47802734 C114 239 114 239 113 241 C109.04 241 105.08 241 101 241 C101.01160156 242.24136719 101.02320313 243.48273438 101.03515625 244.76171875 C101.04453868 246.40364432 101.0536384 248.04557153 101.0625 249.6875 C101.07087891 250.50412109 101.07925781 251.32074219 101.08789062 252.16210938 C101.1213412 260.42440257 101.1213412 260.42440257 100 264 C97.47524538 265.26237731 95.68799534 265.09856404 92.875 265.0625 C91.26625 265.041875 89.6575 265.02125 88 265 C87.67 268.63 87.34 272.26 87 276 C82.71 276.33 78.42 276.66 74 277 C73.93941406 278.28777344 73.87882813 279.57554687 73.81640625 280.90234375 C73.73201753 282.58074159 73.6473687 284.25912636 73.5625 285.9375 C73.52318359 286.78763672 73.48386719 287.63777344 73.44335938 288.51367188 C73.40146484 289.32255859 73.35957031 290.13144531 73.31640625 290.96484375 C73.26141968 292.08814087 73.26141968 292.08814087 73.20532227 293.23413086 C73 295 73 295 72 296 C69.64686445 296.07271741 67.29166332 296.08370868 64.9375 296.0625 C63.64714844 296.05347656 62.35679687 296.04445313 61.02734375 296.03515625 C59.52880859 296.01775391 59.52880859 296.01775391 58 296 C58.01740234 296.95712891 58.01740234 296.95712891 58.03515625 297.93359375 C58.04417969 298.75988281 58.05320312 299.58617187 58.0625 300.4375 C58.07410156 301.26121094 58.08570313 302.08492188 58.09765625 302.93359375 C58 305 58 305 57 306 C55.51361008 306.15655027 54.02050873 306.25066943 52.52734375 306.31640625 C51.62822266 306.35830078 50.72910156 306.40019531 49.80273438 306.44335938 C48.85720703 306.48267578 47.91167969 306.52199219 46.9375 306.5625 C45.98810547 306.60568359 45.03871094 306.64886719 44.06054688 306.69335938 C41.70721824 306.79979132 39.35362901 306.90043154 37 307 C36.67 310.3 36.34 313.6 36 317 C32.1273408 317.9681648 28.96388638 318.07622858 25 318 C24.67 321.3 24.34 324.6 24 328 C21.36 328 18.72 328 16 328 C15.67 331.63 15.34 335.26 15 339 C10.05 339 5.1 339 0 339 C-1 333 -1 333 -1 329 C-3.64 328.67 -6.28 328.34 -9 328 C-10.1577506 324.52674819 -10.06866652 321.63932552 -10 318 C-10.93972656 318.03480469 -10.93972656 318.03480469 -11.8984375 318.0703125 C-12.71570313 318.08835937 -13.53296875 318.10640625 -14.375 318.125 C-15.18710938 318.14820313 -15.99921875 318.17140625 -16.8359375 318.1953125 C-19 318 -19 318 -21 316 C-21 313.03 -21 310.06 -21 307 C-27.93 306.67 -34.86 306.34 -42 306 C-43.60725635 302.78548731 -43.05748185 299.56387464 -43 296 C-43.99902344 296.01160156 -44.99804688 296.02320313 -46.02734375 296.03515625 C-47.96287109 296.04869141 -47.96287109 296.04869141 -49.9375 296.0625 C-51.22527344 296.07410156 -52.51304687 296.08570313 -53.83984375 296.09765625 C-57 296 -57 296 -58 295 C-58.08651611 293.58429877 -58.10704904 292.164405 -58.09765625 290.74609375 C-58.09282227 289.46508789 -58.09282227 289.46508789 -58.08789062 288.15820312 C-58.07532227 286.81145508 -58.07532227 286.81145508 -58.0625 285.4375 C-58.05798828 284.53580078 -58.05347656 283.63410156 -58.04882812 282.70507812 C-58.03700225 280.46998686 -58.0205222 278.23502563 -58 276 C-59.39025391 276.01740234 -59.39025391 276.01740234 -60.80859375 276.03515625 C-62.00613281 276.04417969 -63.20367187 276.05320312 -64.4375 276.0625 C-65.63246094 276.07410156 -66.82742187 276.08570313 -68.05859375 276.09765625 C-71 276 -71 276 -72 275 C-72.07226502 273.14712498 -72.0838122 271.29166122 -72.0625 269.4375 C-72.05347656 268.42558594 -72.04445312 267.41367187 -72.03515625 266.37109375 C-72.02355469 265.58863281 -72.01195312 264.80617188 -72 264 C-72.75925781 264.08378906 -73.51851562 264.16757812 -74.30078125 264.25390625 C-75.29464844 264.35574219 -76.28851563 264.45757812 -77.3125 264.5625 C-78.29863281 264.66691406 -79.28476563 264.77132813 -80.30078125 264.87890625 C-83 265 -83 265 -86 264 C-86 256.41 -86 248.82 -86 241 C-89.96 241 -93.92 241 -98 241 C-98 232.09 -98 223.18 -98 214 C-100.64 214 -103.28 214 -106 214 C-107 213 -107 213 -107.11352539 211.05053711 C-107.10828857 210.2178833 -107.10305176 209.38522949 -107.09765625 208.52734375 C-107.09443359 207.62822266 -107.09121094 206.72910156 -107.08789062 205.80273438 C-107.07951172 204.85720703 -107.07113281 203.91167969 -107.0625 202.9375 C-107.05798828 201.98810547 -107.05347656 201.03871094 -107.04882812 200.06054688 C-107.03700128 197.70700469 -107.01906521 195.35349468 -107 193 C-110.3 192.67 -113.6 192.34 -117 192 C-117 181.77 -117 171.54 -117 161 C-119.64 161.33 -122.28 161.66 -125 162 C-126.32 161.67 -127.64 161.34 -129 161 C-129 123.38 -129 85.76 -129 47 C-126.34092416 45.67046208 -124.33434632 45.88013969 -121.35693359 45.88647461 C-120.17586029 45.88655014 -118.99478699 45.88662567 -117.77792358 45.88670349 C-116.49769318 45.89186478 -115.21746277 45.89702606 -113.8984375 45.90234375 C-112.59170074 45.9037587 -111.28496399 45.90517365 -109.93862915 45.90663147 C-106.46323742 45.91045106 -102.98788743 45.92027658 -99.51251221 45.93133545 C-95.96668055 45.94156157 -92.42084215 45.94613167 -88.875 45.95117188 C-81.91664951 45.96189934 -74.95832676 45.97896908 -68 46 C-68.020625 45.030625 -68.04125 44.06125 -68.0625 43.0625 C-68 40 -68 40 -67 39 C-64.70848583 38.91209025 -62.41427476 38.89305962 -60.12109375 38.90234375 C-59.09110008 38.90446617 -59.09110008 38.90446617 -58.04029846 38.90663147 C-55.83932199 38.91224521 -53.63844591 38.92479993 -51.4375 38.9375 C-49.94856917 38.94251324 -48.45963676 38.94707645 -46.97070312 38.95117188 C-43.31376925 38.96221907 -39.65689442 38.97949287 -36 39 C-36 35.37 -36 31.74 -36 28 C-32.6717269 26.33586345 -29.00266027 27.18132594 -25.375 27.4375 C-24.57320313 27.48970703 -23.77140625 27.54191406 -22.9453125 27.59570312 C-20.96320897 27.72548371 -18.98155501 27.86209735 -17 28 C-16.67 24.7 -16.34 21.4 -16 18 C-13.69 18 -11.38 18 -9 18 C-8.67 15.03 -8.34 12.06 -8 9 C-4.535 8.505 -4.535 8.505 -1 8 C-0.67 5.36 -0.34 2.72 0 0 Z M-6 36 C-6 41.94 -6 47.88 -6 54 C-12.93 54 -19.86 54 -27 54 C-27 56.64 -27 59.28 -27 62 C-33.6 62 -40.2 62 -47 62 C-47 64.97 -47 67.94 -47 71 C-65.15 71 -83.3 71 -102 71 C-102 100.7 -102 130.4 -102 161 C-99.03 161 -96.06 161 -93 161 C-93 164.63 -93 168.26 -93 172 C-93.99 172 -94.98 172 -96 172 C-96 174.64 -96 177.28 -96 180 C-95.01 180 -94.02 180 -93 180 C-93 183.96 -93 187.92 -93 192 C-91.02 192 -89.04 192 -87 192 C-87 197.94 -87 203.88 -87 210 C-83.7 210 -80.4 210 -77 210 C-77 216.6 -77 223.2 -77 230 C-74.03 230 -71.06 230 -68 230 C-68 233.63 -68 237.26 -68 241 C-64.37 241 -60.74 241 -57 241 C-57 246.61 -57 252.22 -57 258 C-53.7 258 -50.4 258 -47 258 C-47 261.96 -47 265.92 -47 270 C-44.03 270 -41.06 270 -38 270 C-38 272.31 -38 274.62 -38 277 C-35.36 277 -32.72 277 -30 277 C-30 280.3 -30 283.6 -30 287 C-25.71 287 -21.42 287 -17 287 C-17 290.3 -17 293.6 -17 297 C-13.04 297 -9.08 297 -5 297 C-5 300.3 -5 303.6 -5 307 C3.25 307 11.5 307 20 307 C20 303.7 20 300.4 20 297 C24.29 297 28.58 297 33 297 C33 293.7 33 290.4 33 287 C36.96 287 40.92 287 45 287 C45 283.7 45 280.4 45 277 C47.64 277 50.28 277 53 277 C53 274.69 53 272.38 53 270 C55.97 270 58.94 270 62 270 C62 266.04 62 262.08 62 258 C65.3 258 68.6 258 72 258 C72 252.39 72 246.78 72 241 C75.3 241 78.6 241 82 241 C82 237.37 82 233.74 82 230 C85.3 230 88.6 230 92 230 C92 223.4 92 216.8 92 210 C94.97 210 97.94 210 101 210 C101 204.06 101 198.12 101 192 C103.31 192 105.62 192 108 192 C108 188.37 108 184.74 108 181 C109.32 181 110.64 181 112 181 C112 177.7 112 174.4 112 171 C110.68 171 109.36 171 108 171 C108 167.7 108 164.4 108 161 C110.97 161 113.94 161 117 161 C117 131.63 117 102.26 117 72 C98.52 72 80.04 72 61 72 C61 68.7 61 65.4 61 62 C54.73 62 48.46 62 42 62 C42 59.36 42 56.72 42 54 C35.07 54 28.14 54 21 54 C21 48.06 21 42.12 21 36 C12.09 36 3.18 36 -6 36 Z " fill="#AEBBCA" transform="translate(252,89)"/>
<path d="M0 0 C8.91 0 17.82 0 27 0 C27 5.94 27 11.88 27 18 C33.93 18 40.86 18 48 18 C48 20.64 48 23.28 48 26 C54.27 26 60.54 26 67 26 C67 29.3 67 32.6 67 36 C85.48 36 103.96 36 123 36 C123 65.37 123 94.74 123 125 C120.03 125 117.06 125 114 125 C114 128.3 114 131.6 114 135 C115.32 135 116.64 135 118 135 C118 138.3 118 141.6 118 145 C116.68 145 115.36 145 114 145 C114 148.63 114 152.26 114 156 C111.69 156 109.38 156 107 156 C107 161.94 107 167.88 107 174 C104.03 174 101.06 174 98 174 C98 180.6 98 187.2 98 194 C94.7 194 91.4 194 88 194 C88 197.63 88 201.26 88 205 C84.7 205 81.4 205 78 205 C78 210.61 78 216.22 78 222 C74.7 222 71.4 222 68 222 C68 225.96 68 229.92 68 234 C65.03 234 62.06 234 59 234 C59 236.31 59 238.62 59 241 C56.36 241 53.72 241 51 241 C51 244.3 51 247.6 51 251 C47.04 251 43.08 251 39 251 C39 254.3 39 257.6 39 261 C34.71 261 30.42 261 26 261 C26 264.3 26 267.6 26 271 C17.75 271 9.5 271 1 271 C1 267.7 1 264.4 1 261 C-2.96 261 -6.92 261 -11 261 C-11 257.7 -11 254.4 -11 251 C-15.29 251 -19.58 251 -24 251 C-24 247.7 -24 244.4 -24 241 C-26.64 241 -29.28 241 -32 241 C-32 238.69 -32 236.38 -32 234 C-34.97 234 -37.94 234 -41 234 C-41 230.04 -41 226.08 -41 222 C-44.3 222 -47.6 222 -51 222 C-51 216.39 -51 210.78 -51 205 C-54.63 205 -58.26 205 -62 205 C-62 201.37 -62 197.74 -62 194 C-64.97 194 -67.94 194 -71 194 C-71 187.4 -71 180.8 -71 174 C-74.3 174 -77.6 174 -81 174 C-81 168.06 -81 162.12 -81 156 C-82.98 156 -84.96 156 -87 156 C-87 152.04 -87 148.08 -87 144 C-87.99 144 -88.98 144 -90 144 C-90 141.36 -90 138.72 -90 136 C-89.01 136 -88.02 136 -87 136 C-87 132.37 -87 128.74 -87 125 C-89.97 125 -92.94 125 -96 125 C-96 95.3 -96 65.6 -96 35 C-77.85 35 -59.7 35 -41 35 C-41 32.03 -41 29.06 -41 26 C-34.4 26 -27.8 26 -21 26 C-21 23.36 -21 20.72 -21 18 C-14.07 18 -7.14 18 0 18 C0 12.06 0 6.12 0 0 Z M1 19 C1 21.97 1 24.94 1 28 C-2.3 28 -5.6 28 -9 28 C-9 30.97 -9 33.94 -9 37 C-15.93 37 -22.86 37 -30 37 C-30 39.97 -30 42.94 -30 46 C-48.15 46 -66.3 46 -85 46 C-85 61.18 -85 76.36 -85 92 C-79.39 92 -73.78 92 -68 92 C-68 96.62 -68 101.24 -68 106 C-65.36 106 -62.72 106 -60 106 C-60 112.27 -60 118.54 -60 125 C-57.36 125 -54.72 125 -52 125 C-52 132.26 -52 139.52 -52 147 C-50.02 147 -48.04 147 -46 147 C-46 152.94 -46 158.88 -46 165 C-43.69 165 -41.38 165 -39 165 C-39 172.26 -39 179.52 -39 187 C-36.03 187 -33.06 187 -30 187 C-30 192.61 -30 198.22 -30 204 C-23.4 204 -16.8 204 -10 204 C-10 198.39 -10 192.78 -10 187 C-7.03 187 -4.06 187 -1 187 C-1 179.41 -1 171.82 -1 164 C1.31 164 3.62 164 6 164 C6 154.76 6 145.52 6 136 C10.62 136 15.24 136 20 136 C20 145.57 20 155.14 20 165 C22.64 165 25.28 165 28 165 C28 172.26 28 179.52 28 187 C30.97 187 33.94 187 37 187 C37 192.61 37 198.22 37 204 C43.6 204 50.2 204 57 204 C57 198.39 57 192.78 57 187 C59.97 187 62.94 187 66 187 C66 179.74 66 172.48 66 165 C68.31 165 70.62 165 73 165 C73 159.06 73 153.12 73 147 C74.98 147 76.96 147 79 147 C79 139.74 79 132.48 79 125 C81.97 125 84.94 125 88 125 C88 118.73 88 112.46 88 106 C90.31 106 92.62 106 95 106 C95 101.38 95 96.76 95 92 C100.61 92 106.22 92 112 92 C112 76.82 112 61.64 112 46 C93.85 46 75.7 46 57 46 C57 43.03 57 40.06 57 37 C50.4 36.67 43.8 36.34 37 36 C36.505 32.04 36.505 32.04 36 28 C32.7 28 29.4 28 26 28 C26 25.03 26 22.06 26 19 C17.75 19 9.5 19 1 19 Z " fill="#241E33" transform="translate(246,125)"/>
<path d="M0 0 C3.3 0 6.6 0 10 0 C10 3.3 10 6.6 10 10 C16.6 10 23.2 10 30 10 C30 12.64 30 15.28 30 18 C33.63 18 37.26 18 41 18 C41 19.98 41 21.96 41 24 C63.77 24 86.54 24 110 24 C110 57 110 90 110 124 C113.63 124 117.26 124 121 124 C121 86.71 121 49.42 121 11 C121.33 11 121.66 11 122 11 C122.77240507 26.06164183 123.14011293 41.07222014 123.09765625 56.15234375 C123.09578326 58.15971338 123.09436355 60.16708348 123.09336853 62.17445374 C123.08961251 67.37079203 123.07984443 72.56710083 123.06866455 77.76342773 C123.05829864 83.10074464 123.05383894 88.43806648 123.04882812 93.77539062 C123.03821337 104.18360647 123.02122403 114.59180075 123 125 C120 126 120 126 111 125 C111 135.23 111 145.46 111 156 C108.03 156.33 105.06 156.66 102 157 C101.93941406 158.43214844 101.87882813 159.86429688 101.81640625 161.33984375 C101.73201896 163.20574041 101.64737007 165.07162524 101.5625 166.9375 C101.52318359 167.88302734 101.48386719 168.82855469 101.44335938 169.80273438 C101.40146484 170.70185547 101.35957031 171.60097656 101.31640625 172.52734375 C101.26141968 173.77632446 101.26141968 173.77632446 101.20532227 175.05053711 C101 177 101 177 100 178 C97.66702567 178.04092937 95.33294775 178.04241723 93 178 C93.00523682 178.74685059 93.01047363 179.49370117 93.01586914 180.26318359 C93.03660401 183.63378057 93.04964899 187.00436414 93.0625 190.375 C93.07087891 191.550625 93.07925781 192.72625 93.08789062 193.9375 C93.09111328 195.05898438 93.09433594 196.18046875 93.09765625 197.3359375 C93.10289307 198.37282715 93.10812988 199.4097168 93.11352539 200.47802734 C93 203 93 203 92 205 C88.04 205 84.08 205 80 205 C80.01160156 206.24136719 80.02320313 207.48273438 80.03515625 208.76171875 C80.04453868 210.40364432 80.0536384 212.04557153 80.0625 213.6875 C80.07087891 214.50412109 80.07925781 215.32074219 80.08789062 216.16210938 C80.1213412 224.42440257 80.1213412 224.42440257 79 228 C76.47524538 229.26237731 74.68799534 229.09856404 71.875 229.0625 C70.26625 229.041875 68.6575 229.02125 67 229 C66.67 232.63 66.34 236.26 66 240 C61.71 240.33 57.42 240.66 53 241 C52.93941406 242.28777344 52.87882813 243.57554687 52.81640625 244.90234375 C52.73201753 246.58074159 52.6473687 248.25912636 52.5625 249.9375 C52.52318359 250.78763672 52.48386719 251.63777344 52.44335938 252.51367188 C52.38051758 253.72700195 52.38051758 253.72700195 52.31640625 254.96484375 C52.26141968 256.08814087 52.26141968 256.08814087 52.20532227 257.23413086 C52 259 52 259 51 260 C48.64686445 260.07271741 46.29166332 260.08370868 43.9375 260.0625 C42.64714844 260.05347656 41.35679687 260.04445313 40.02734375 260.03515625 C38.52880859 260.01775391 38.52880859 260.01775391 37 260 C37.01740234 260.95712891 37.01740234 260.95712891 37.03515625 261.93359375 C37.04417969 262.75988281 37.05320312 263.58617187 37.0625 264.4375 C37.07410156 265.26121094 37.08570313 266.08492188 37.09765625 266.93359375 C37 269 37 269 36 270 C34.51361008 270.15655027 33.02050873 270.25066943 31.52734375 270.31640625 C30.62822266 270.35830078 29.72910156 270.40019531 28.80273438 270.44335938 C27.85720703 270.48267578 26.91167969 270.52199219 25.9375 270.5625 C24.98810547 270.60568359 24.03871094 270.64886719 23.06054688 270.69335938 C20.70721824 270.79979132 18.35362901 270.90043154 16 271 C15.67 274.3 15.34 277.6 15 281 C11.1273408 281.9681648 7.96388638 282.07622858 4 282 C3.67 285.3 3.34 288.6 3 292 C0.36 292 -2.28 292 -5 292 C-5.33 295.63 -5.66 299.26 -6 303 C-10.95 303 -15.9 303 -21 303 C-22 297 -22 297 -22 293 C-24.64 292.67 -27.28 292.34 -30 292 C-31.1577506 288.52674819 -31.06866652 285.63932552 -31 282 C-31.93972656 282.03480469 -31.93972656 282.03480469 -32.8984375 282.0703125 C-33.71570313 282.08835937 -34.53296875 282.10640625 -35.375 282.125 C-36.18710938 282.14820313 -36.99921875 282.17140625 -37.8359375 282.1953125 C-40 282 -40 282 -42 280 C-42 277.03 -42 274.06 -42 271 C-48.93 270.67 -55.86 270.34 -63 270 C-64.60725635 266.78548731 -64.05748185 263.56387464 -64 260 C-64.99902344 260.01160156 -65.99804688 260.02320313 -67.02734375 260.03515625 C-68.96287109 260.04869141 -68.96287109 260.04869141 -70.9375 260.0625 C-72.22527344 260.07410156 -73.51304687 260.08570313 -74.83984375 260.09765625 C-78 260 -78 260 -79 259 C-79.08651611 257.58429877 -79.10704904 256.164405 -79.09765625 254.74609375 C-79.09443359 253.89208984 -79.09121094 253.03808594 -79.08789062 252.15820312 C-79.07532227 250.81145508 -79.07532227 250.81145508 -79.0625 249.4375 C-79.05798828 248.53580078 -79.05347656 247.63410156 -79.04882812 246.70507812 C-79.03700225 244.46998686 -79.0205222 242.23502563 -79 240 C-80.39025391 240.01740234 -80.39025391 240.01740234 -81.80859375 240.03515625 C-83.60490234 240.04869141 -83.60490234 240.04869141 -85.4375 240.0625 C-86.63246094 240.07410156 -87.82742187 240.08570313 -89.05859375 240.09765625 C-92 240 -92 240 -93 239 C-93.07226502 237.14712498 -93.0838122 235.29166122 -93.0625 233.4375 C-93.05347656 232.42558594 -93.04445312 231.41367187 -93.03515625 230.37109375 C-93.02355469 229.58863281 -93.01195312 228.80617188 -93 228 C-93.75925781 228.08378906 -94.51851562 228.16757812 -95.30078125 228.25390625 C-96.79158203 228.40666016 -96.79158203 228.40666016 -98.3125 228.5625 C-99.29863281 228.66691406 -100.28476563 228.77132812 -101.30078125 228.87890625 C-104 229 -104 229 -107 228 C-107 220.41 -107 212.82 -107 205 C-110.96 205 -114.92 205 -119 205 C-119 196.09 -119 187.18 -119 178 C-121.64 178 -124.28 178 -127 178 C-128 177 -128 177 -128.11352539 175.05053711 C-128.10828857 174.2178833 -128.10305176 173.38522949 -128.09765625 172.52734375 C-128.09443359 171.62822266 -128.09121094 170.72910156 -128.08789062 169.80273438 C-128.07951172 168.85720703 -128.07113281 167.91167969 -128.0625 166.9375 C-128.05798828 165.98810547 -128.05347656 165.03871094 -128.04882812 164.06054688 C-128.0370011 161.70696935 -128.02052025 159.35351523 -128 157 C-127.34 157 -126.68 157 -126 157 C-126 163.27 -126 169.54 -126 176 C-123.36 176.33 -120.72 176.66 -118 177 C-118 185.91 -118 194.82 -118 204 C-114.04 204 -110.08 204 -106 204 C-104.35 204.33 -102.7 204.66 -101 205 C-101 207.97 -101 210.94 -101 214 C-98.03 214 -95.06 214 -92 214 C-92 217.96 -92 221.92 -92 226 C-87.38 225.67 -82.76 225.34 -78 225 C-78 224.01 -78 223.02 -78 222 C-74.7 222 -71.4 222 -68 222 C-68 225.96 -68 229.92 -68 234 C-65.03 234 -62.06 234 -59 234 C-59 236.31 -59 238.62 -59 241 C-56.36 241 -53.72 241 -51 241 C-51 244.3 -51 247.6 -51 251 C-46.71 251 -42.42 251 -38 251 C-38 254.3 -38 257.6 -38 261 C-34.04 261 -30.08 261 -26 261 C-26 264.3 -26 267.6 -26 271 C-17.75 271 -9.5 271 -1 271 C-1 267.7 -1 264.4 -1 261 C3.29 261 7.58 261 12 261 C12 257.7 12 254.4 12 251 C15.96 251 19.92 251 24 251 C24 247.7 24 244.4 24 241 C26.64 241 29.28 241 32 241 C32 238.69 32 236.38 32 234 C34.97 234 37.94 234 41 234 C41 230.04 41 226.08 41 222 C44.3 222 47.6 222 51 222 C51 216.39 51 210.78 51 205 C54.3 205 57.6 205 61 205 C61 201.37 61 197.74 61 194 C64.3 194 67.6 194 71 194 C71 187.4 71 180.8 71 174 C73.97 174 76.94 174 80 174 C80 168.06 80 162.12 80 156 C82.31 156 84.62 156 87 156 C87 152.37 87 148.74 87 145 C88.32 145 89.64 145 91 145 C91 141.7 91 138.4 91 135 C89.68 135 88.36 135 87 135 C87 131.7 87 128.4 87 125 C89.97 125 92.94 125 96 125 C96 95.63 96 66.26 96 36 C77.52 36 59.04 36 40 36 C40 32.7 40 29.4 40 26 C33.73 26 27.46 26 21 26 C21 23.36 21 20.72 21 18 C14.07 18 7.14 18 0 18 C0 12.06 0 6.12 0 0 Z " fill="#ACB8C6" transform="translate(273,125)"/>
<path d="M0 0 C10.23 0 20.46 0 31 0 C31 5.28 31 10.56 31 16 C33.97 16 36.94 16 40 16 C40 25.57 40 35.14 40 45 C42.31 45 44.62 45 47 45 C47 49.62 47 54.24 47 59 C48.98 59 50.96 59 53 59 C53.495 67.91 53.495 67.91 54 77 C60.93 77.495 60.93 77.495 68 78 C68 71.73 68 65.46 68 59 C70.31 59 72.62 59 75 59 C75 49.76 75 40.52 75 31 C76.65 31 78.3 31 80 31 C80 26.05 80 21.1 80 16 C88.91 16 97.82 16 107 16 C107 20.95 107 25.9 107 31 C108.65 31 110.3 31 112 31 C112 40.24 112 49.48 112 59 C114.31 59 116.62 59 119 59 C119 64.94 119 70.88 119 77 C123.95 77 128.9 77 134 77 C134 71.06 134 65.12 134 59 C135.98 59 137.96 59 140 59 C140 54.38 140 49.76 140 45 C142.31 45 144.62 45 147 45 C147 35.43 147 25.86 147 16 C149.97 16 152.94 16 156 16 C156 10.72 156 5.44 156 0 C166.56 0 177.12 0 188 0 C188 4.95 188 9.9 188 15 C183.71 15 179.42 15 175 15 C175 19.62 175 24.24 175 29 C172.69 29 170.38 29 168 29 C168 35.27 168 41.54 168 48 C165.03 48 162.06 48 159 48 C159 55.26 159 62.52 159 70 C157.02 70 155.04 70 153 70 C153 75.94 153 81.88 153 88 C150.69 88 148.38 88 146 88 C146 95.26 146 102.52 146 110 C143.03 110 140.06 110 137 110 C137 115.61 137 121.22 137 127 C130.4 127 123.8 127 117 127 C117 121.39 117 115.78 117 110 C114.03 110 111.06 110 108 110 C108 102.74 108 95.48 108 88 C105.36 88 102.72 88 100 88 C100 78.43 100 68.86 100 59 C95.38 59 90.76 59 86 59 C86 68.24 86 77.48 86 87 C83.69 87 81.38 87 79 87 C79 94.59 79 102.18 79 110 C76.03 110 73.06 110 70 110 C70 115.61 70 121.22 70 127 C63.4 127 56.8 127 50 127 C50 121.39 50 115.78 50 110 C47.03 110 44.06 110 41 110 C41 102.74 41 95.48 41 88 C38.69 88 36.38 88 34 88 C34 82.06 34 76.12 34 70 C32.02 70 30.04 70 28 70 C28 62.74 28 55.48 28 48 C25.36 48 22.72 48 20 48 C20 41.73 20 35.46 20 29 C17.36 29 14.72 29 12 29 C12 24.38 12 19.76 12 15 C8.04 15 4.08 15 0 15 C0 10.05 0 5.1 0 0 Z " fill="#F9F9FA" transform="translate(166,202)"/>
<path d="M0 0 C4.95 0 9.9 0 15 0 C15 2.97 15 5.94 15 9 C17.64 9 20.28 9 23 9 C23.33 11.64 23.66 14.28 24 17 C26.31 17.33 28.62 17.66 31 18 C32 25.75 32 25.75 32 28 C38.27 28 44.54 28 51 28 C51.33 31.3 51.66 34.6 52 38 C53.35532837 38.03758423 53.35532837 38.03758423 54.73803711 38.07592773 C58.0796428 38.17087317 61.42106252 38.27011621 64.76245117 38.37231445 C66.2106424 38.4157163 67.65888654 38.45738744 69.10717773 38.49731445 C71.18489559 38.55489062 73.26234573 38.61862028 75.33984375 38.68359375 C76.59144287 38.72025146 77.84304199 38.75690918 79.13256836 38.79467773 C82 39 82 39 83 40 C83 41.98 83 43.96 83 46 C102.47 46 121.94 46 142 46 C142 83.62 142 121.24 142 160 C138.37 160 134.74 160 131 160 C131 127 131 94 131 60 C108.23 60 85.46 60 62 60 C62 58.02 62 56.04 62 54 C58.37 54 54.74 54 51 54 C51 51.36 51 48.72 51 46 C44.4 46 37.8 46 31 46 C31 42.7 31 39.4 31 36 C15.49 36 -0.02 36 -16 36 C-16 39.3 -16 42.6 -16 46 C-22.6 46 -29.2 46 -36 46 C-36 48.64 -36 51.28 -36 54 C-39.63 54 -43.26 54 -47 54 C-47 55.98 -47 57.96 -47 60 C-55.9446663 60.02315598 -64.88932231 60.04093173 -73.83401203 60.05181217 C-77.9872525 60.05703386 -82.14047249 60.06411859 -86.29370117 60.07543945 C-90.30073943 60.08629366 -94.30775797 60.09228223 -98.3148098 60.09487724 C-99.84464008 60.09672691 -101.37446926 60.10033877 -102.90429115 60.10573006 C-105.04469777 60.11297407 -107.18502257 60.11398952 -109.32543945 60.11352539 C-111.15411308 60.11685631 -111.15411308 60.11685631 -113.01972961 60.12025452 C-116 60 -116 60 -119 59 C-119 57.68 -119 56.36 -119 55 C-120.32 55 -121.64 55 -123 55 C-123 53.68 -123 52.36 -123 51 C-123.99 51 -124.98 51 -126 51 C-126 49.68 -126 48.36 -126 47 C-106.53 47 -87.06 47 -67 47 C-67 44.36 -67 41.72 -67 39 C-56.77 39 -46.54 39 -36 39 C-36 35.37 -36 31.74 -36 28 C-32.6717269 26.33586345 -29.00266027 27.18132594 -25.375 27.4375 C-24.57320313 27.48970703 -23.77140625 27.54191406 -22.9453125 27.59570312 C-20.96320897 27.72548371 -18.98155501 27.86209735 -17 28 C-16.67 24.7 -16.34 21.4 -16 18 C-13.69 18 -11.38 18 -9 18 C-8.67 15.03 -8.34 12.06 -8 9 C-4.535 8.505 -4.535 8.505 -1 8 C-0.67 5.36 -0.34 2.72 0 0 Z " fill="#F6F7F8" transform="translate(252,89)"/>
<path d="M0 0 C8.25 0 16.5 0 25 0 C25 5.61 25 11.22 25 17 C32.26 17 39.52 17 47 17 C47 19.64 47 22.28 47 25 C53.27 25 59.54 25 66 25 C66 28.3 66 31.6 66 35 C84.48 35 102.96 35 122 35 C122 64.37 122 93.74 122 124 C119.03 124 116.06 124 113 124 C113 127.3 113 130.6 113 134 C114.32 134 115.64 134 117 134 C117 137.3 117 140.6 117 144 C115.68 144 114.36 144 113 144 C113 147.63 113 151.26 113 155 C110.69 155 108.38 155 106 155 C106 160.94 106 166.88 106 173 C103.03 173 100.06 173 97 173 C97 179.6 97 186.2 97 193 C93.7 193 90.4 193 87 193 C87 196.63 87 200.26 87 204 C83.7 204 80.4 204 77 204 C76.67 205.32 76.34 206.64 76 208 C76 207.34 76 206.68 76 206 C75.34 205.67 74.68 205.34 74 205 C74.66 204.34 75.32 203.68 76 203 C76.37268887 200.08811755 76.37268887 200.08811755 76.4140625 196.6796875 C76.45273437 195.42285156 76.49140625 194.16601562 76.53125 192.87109375 C76.5621875 191.55238281 76.593125 190.23367188 76.625 188.875 C76.66318029 187.53513082 76.70223206 186.19528617 76.7421875 184.85546875 C76.8367203 181.57045381 76.92227156 178.28544862 77 175 C80.3 175 83.6 175 87 175 C87 171.7 87 168.4 87 165 C88.32 165 89.64 165 91 165 C91 161.7 91 158.4 91 155 C93.97 155 96.94 155 100 155 C100 140.48 100 125.96 100 111 C99.01 111.495 99.01 111.495 98 112 C96.29297265 112.06996014 94.58331997 112.08440154 92.875 112.0625 C91.26625 112.041875 89.6575 112.02125 88 112 C88 115.63 88 119.26 88 123 C87.67 123 87.34 123 87 123 C87 117.06 87 111.12 87 105 C89.31 105 91.62 105 94 105 C94 100.38 94 95.76 94 91 C99.61 91 105.22 91 111 91 C111 75.82 111 60.64 111 45 C92.85 45 74.7 45 56 45 C56 42.03 56 39.06 56 36 C53.85177734 36.01740234 53.85177734 36.01740234 51.66015625 36.03515625 C49.79427213 36.04453255 47.92838661 36.05363292 46.0625 36.0625 C45.11697266 36.07087891 44.17144531 36.07925781 43.19726562 36.08789062 C41.84858398 36.09272461 41.84858398 36.09272461 40.47265625 36.09765625 C39.22367554 36.10551147 39.22367554 36.10551147 37.94946289 36.11352539 C36 36 36 36 35 35 C34.85884839 32.32941149 34.95752893 29.67567762 35 27 C31.7 27 28.4 27 25 27 C25 24.03 25 21.06 25 18 C23.94941406 18.01160156 22.89882813 18.02320313 21.81640625 18.03515625 C14.46073519 18.09119946 7.29940004 18.04277143 0 17 C0 11.39 0 5.78 0 0 Z " fill="#1C162B" transform="translate(247,126)"/>
<path d="M0 0 C0.33 0 0.66 0 1 0 C1 2.31 1 4.62 1 7 C-18.47 7 -37.94 7 -58 7 C-58 8.32 -58 9.64 -58 11 C-57.01 11 -56.02 11 -55 11 C-55 12.32 -55 13.64 -55 15 C-53.68 15 -52.36 15 -51 15 C-51 16.32 -51 17.64 -51 19 C-50.01 19 -49.02 19 -48 19 C-48 62.89 -48 106.78 -48 152 C-48.33 152 -48.66 152 -49 152 C-49 141.77 -49 131.54 -49 121 C-51.64 121.33 -54.28 121.66 -57 122 C-58.32 121.67 -59.64 121.34 -61 121 C-61 83.38 -61 45.76 -61 7 C-58.34092416 5.67046208 -56.33434632 5.88013969 -53.35693359 5.88647461 C-52.17586029 5.88655014 -50.99478699 5.88662567 -49.77792358 5.88670349 C-48.49769318 5.89186478 -47.21746277 5.89702606 -45.8984375 5.90234375 C-44.59170074 5.9037587 -43.28496399 5.90517365 -41.93862915 5.90663147 C-38.46323742 5.91045106 -34.98788743 5.92027658 -31.51251221 5.93133545 C-27.96668055 5.94156157 -24.42084215 5.94613167 -20.875 5.95117188 C-13.91664951 5.96189934 -6.95832676 5.97896908 0 6 C0 4.02 0 2.04 0 0 Z " fill="#959FB2" transform="translate(184,129)"/>
<path d="M0 0 C18.15 0 36.3 0 55 0 C55 2.97 55 5.94 55 9 C40.81 9 26.62 9 12 9 C12 15.6 12 22.2 12 29 C19.92 29.33 27.84 29.66 36 30 C36 30.33 36 30.66 36 31 C25.77 31 15.54 31 5 31 C5 35.95 5 40.9 5 46 C3.35 46 1.7 46 0 46 C0 30.82 0 15.64 0 0 Z " fill="#3F3F54" transform="translate(161,171)"/>
<path d="M0 0 C17.82 0 35.64 0 54 0 C54 15.18 54 30.36 54 46 C52.68 46 51.36 46 50 46 C50 41.05 50 36.1 50 31 C39.44 31 28.88 31 18 31 C18 30.67 18 30.34 18 30 C25.59 30 33.18 30 41 30 C40.67 23.4 40.34 16.8 40 10 C20.2 9.505 20.2 9.505 0 9 C0 6.03 0 3.06 0 0 Z " fill="#3E3E51" transform="translate(304,171)"/>
<path d="M0 0 C2.26609984 4.53219967 1.92735976 6.17772925 1 11 C-2.96 11 -6.92 11 -11 11 C-10.98839844 12.24136719 -10.97679687 13.48273438 -10.96484375 14.76171875 C-10.95546132 16.40364432 -10.9463616 18.04557153 -10.9375 19.6875 C-10.92912109 20.50412109 -10.92074219 21.32074219 -10.91210938 22.16210938 C-10.8786588 30.42440257 -10.8786588 30.42440257 -12 34 C-14.52475462 35.26237731 -16.31200466 35.09856404 -19.125 35.0625 C-20.73375 35.041875 -22.3425 35.02125 -24 35 C-24.33 38.63 -24.66 42.26 -25 46 C-31.435 46.495 -31.435 46.495 -38 47 C-38.09087891 48.93166016 -38.09087891 48.93166016 -38.18359375 50.90234375 C-38.26798247 52.58074159 -38.3526313 54.25912636 -38.4375 55.9375 C-38.47681641 56.78763672 -38.51613281 57.63777344 -38.55664062 58.51367188 C-38.61948242 59.72700195 -38.61948242 59.72700195 -38.68359375 60.96484375 C-38.72025146 61.7137085 -38.75690918 62.46257324 -38.79467773 63.23413086 C-39 65 -39 65 -40 66 C-42.35313555 66.07271741 -44.70833668 66.08370868 -47.0625 66.0625 C-48.99802734 66.04896484 -48.99802734 66.04896484 -50.97265625 66.03515625 C-51.97167969 66.02355469 -52.97070312 66.01195312 -54 66 C-53.98839844 66.63808594 -53.97679687 67.27617187 -53.96484375 67.93359375 C-53.95582031 68.75988281 -53.94679688 69.58617187 -53.9375 70.4375 C-53.92589844 71.26121094 -53.91429687 72.08492188 -53.90234375 72.93359375 C-54 75 -54 75 -55 76 C-56.48638992 76.15655027 -57.97949127 76.25066943 -59.47265625 76.31640625 C-60.37177734 76.35830078 -61.27089844 76.40019531 -62.19726562 76.44335938 C-63.14279297 76.48267578 -64.08832031 76.52199219 -65.0625 76.5625 C-66.01189453 76.60568359 -66.96128906 76.64886719 -67.93945312 76.69335938 C-70.29281353 76.79979276 -72.64628354 76.90181008 -75 77 C-75.66 78.32 -76.32 79.64 -77 81 C-77 79.02 -77 77.04 -77 75 C-73.04 75 -69.08 75 -65 75 C-65 71.7 -65 68.4 -65 65 C-61.7 65 -58.4 65 -55 65 C-55 61.04 -55 57.08 -55 53 C-50.05 53 -45.1 53 -40 53 C-40 49.7 -40 46.4 -40 43 C-39.01 43 -38.02 43 -37 43 C-37 39.37 -37 35.74 -37 32 C-33.04 32 -29.08 32 -25 32 C-25 28.04 -25 24.08 -25 20 C-22.36 20 -19.72 20 -17 20 C-17 17.03 -17 14.06 -17 11 C-13.16275828 10.09586327 -9.62497726 9.89423102 -5.6875 9.9375 C-4.08455078 9.95103516 -4.08455078 9.95103516 -2.44921875 9.96484375 C-1.64097656 9.97644531 -0.83273437 9.98804688 0 10 C0 6.7 0 3.4 0 0 Z " fill="#848FA6" transform="translate(364,319)"/>
<path d="M0 0 C8.91 0 17.82 0 27 0 C27 8.91 27 17.82 27 27 C18.09 27 9.18 27 0 27 C0 18.09 0 9.18 0 0 Z " fill="#FAFBFC" transform="translate(246,171)"/>
<path d="M0 0 C3.3 0 6.6 0 10 0 C10 3.3 10 6.6 10 10 C16.6 10 23.2 10 30 10 C30 12.64 30 15.28 30 18 C33.63 18 37.26 18 41 18 C41 23.61 41 29.22 41 35 C59.15 35 77.3 35 96 35 C96 35.33 96 35.66 96 36 C77.52 36 59.04 36 40 36 C40 32.7 40 29.4 40 26 C33.73 26 27.46 26 21 26 C21 23.36 21 20.72 21 18 C14.07 18 7.14 18 0 18 C0 12.06 0 6.12 0 0 Z " fill="#97A0B3" transform="translate(273,125)"/>
<path d="M0 0 C3.3 0 6.6 0 10 0 C10 5.94 10 11.88 10 18 C3.07 18 -3.86 18 -11 18 C-11 20.64 -11 23.28 -11 26 C-17.6 26 -24.2 26 -31 26 C-31 23.36 -31 20.72 -31 18 C-27.37 18 -23.74 18 -20 18 C-20 15.36 -20 12.72 -20 10 C-13.4 10 -6.8 10 0 10 C0 6.7 0 3.4 0 0 Z " fill="#9CA7BA" transform="translate(236,125)"/>
<path d="M0 0 C4.62 0 9.24 0 14 0 C14.33 2.64 14.66 5.28 15 8 C16.39025391 7.98259766 16.39025391 7.98259766 17.80859375 7.96484375 C19.00613281 7.95582031 20.20367187 7.94679688 21.4375 7.9375 C22.63246094 7.92589844 23.82742187 7.91429687 25.05859375 7.90234375 C28 8 28 8 29 9 C29.14310287 12.6691577 29.04221662 16.32715441 29 20 C32.63 20 36.26 20 40 20 C40 23.3 40 26.6 40 30 C43.96 30 47.92 30 52 30 C52 33.63 52 37.26 52 41 C51.34 41 50.68 41 50 41 C50 38.03 50 35.06 50 32 C43.07 31.67 36.14 31.34 29 31 C27.39274365 27.78548731 27.94251815 24.56387464 28 21 C27.00097656 21.01160156 26.00195312 21.02320313 24.97265625 21.03515625 C23.68230469 21.04417969 22.39195312 21.05320312 21.0625 21.0625 C19.77472656 21.07410156 18.48695313 21.08570313 17.16015625 21.09765625 C14 21 14 21 13 20 C12.91348389 18.58429877 12.89295096 17.164405 12.90234375 15.74609375 C12.90556641 14.89208984 12.90878906 14.03808594 12.91210938 13.15820312 C12.92048828 12.26037109 12.92886719 11.36253906 12.9375 10.4375 C12.94201172 9.53580078 12.94652344 8.63410156 12.95117188 7.70507812 C12.96299756 5.47002411 12.98093362 3.23500398 13 1 C8.71 1 4.42 1 0 1 C0 0.67 0 0.34 0 0 Z " fill="#8F97AD" transform="translate(181,364)"/>
<path d="M0 0 C0.66 0 1.32 0 2 0 C2 6.27 2 12.54 2 19 C4.64 19.33 7.28 19.66 10 20 C10 28.91 10 37.82 10 47 C13.96 47 17.92 47 22 47 C23.65 47.33 25.3 47.66 27 48 C27 51.3 27 54.6 27 58 C29.64 58 32.28 58 35 58 C35.79681084 66.02502344 36.12867289 73.93649887 36 82 C35.67 82 35.34 82 35 82 C35 78.37 35 74.74 35 71 C32.3703125 71.2784375 32.3703125 71.2784375 29.6875 71.5625 C26.24748949 71.92673641 24.3111013 72.10370043 21 71 C21 63.41 21 55.82 21 48 C17.04 48 13.08 48 9 48 C9 39.09 9 30.18 9 21 C6.36 21 3.72 21 1 21 C0 20 0 20 -0.11352539 18.05053711 C-0.10567017 16.8015564 -0.10567017 16.8015564 -0.09765625 15.52734375 C-0.09443359 14.62822266 -0.09121094 13.72910156 -0.08789062 12.80273438 C-0.07951172 11.85720703 -0.07113281 10.91167969 -0.0625 9.9375 C-0.05798828 8.98810547 -0.05347656 8.03871094 -0.04882812 7.06054688 C-0.0370011 4.70696935 -0.02052025 2.35351523 0 0 Z " fill="#9AA3BA" transform="translate(145,282)"/>
<path d="M0 0 C8.91 0 17.82 0 27 0 C27 8.91 27 17.82 27 27 C18.09 27 9.18 27 0 27 C0 23.37 0 19.74 0 16 C8.58 16 17.16 16 26 16 C26 11.05 26 6.1 26 1 C17.42 1 8.84 1 0 1 C0 0.67 0 0.34 0 0 Z " fill="#9AA3B8" transform="translate(246,171)"/>
<path d="M0 0 C4.95 0 9.9 0 15 0 C15 4.29 15 8.58 15 13 C10.38 13 5.76 13 1 13 C1.020625 14.464375 1.04125 15.92875 1.0625 17.4375 C1.08392007 18.95832518 1.07179964 20.48071962 1 22 C-0.58403524 23.58403524 -2.2771638 23.21974935 -4.47265625 23.31640625 C-5.37177734 23.35830078 -6.27089844 23.40019531 -7.19726562 23.44335938 C-8.61555664 23.50233398 -8.61555664 23.50233398 -10.0625 23.5625 C-11.01189453 23.60568359 -11.96128906 23.64886719 -12.93945312 23.69335938 C-15.29281353 23.79979276 -17.64628354 23.90181008 -20 24 C-20.66 25.32 -21.32 26.64 -22 28 C-22 26.02 -22 24.04 -22 22 C-18.04 22 -14.08 22 -10 22 C-10 18.7 -10 15.4 -10 12 C-6.7 12 -3.4 12 0 12 C0 8.04 0 4.08 0 0 Z " fill="#9CA6BC" transform="translate(309,372)"/>
<path d="M0 0 C8.58 0 17.16 0 26 0 C26 2.97 26 5.94 26 9 C17.42 9 8.84 9 0 9 C0 6.03 0 3.06 0 0 Z " fill="#A8B6C4" transform="translate(246,116)"/>
<path d="M0 0 C10.89 0 21.78 0 33 0 C33 0.33 33 0.66 33 1 C30.36 1 27.72 1 25 1 C24.67 4.63 24.34 8.26 24 12 C19.05 12 14.1 12 9 12 C8 6 8 6 8 2 C5.36 1.67 2.72 1.34 0 1 C0 0.67 0 0.34 0 0 Z " fill="#848DA3" transform="translate(243,416)"/>
<path d="M0 0 C0.33 0 0.66 0 1 0 C1 6.6 1 13.2 1 20 C1.66 20 2.32 20 3 20 C3 26.27 3 32.54 3 39 C0.36 39.66 -2.28 40.32 -5 41 C-6 40 -6 40 -6.11352539 38.23413086 C-6.10828857 37.48526611 -6.10305176 36.73640137 -6.09765625 35.96484375 C-6.09443359 35.15595703 -6.09121094 34.34707031 -6.08789062 33.51367188 C-6.07951172 32.66353516 -6.07113281 31.81339844 -6.0625 30.9375 C-6.05798828 30.08349609 -6.05347656 29.22949219 -6.04882812 28.34960938 C-6.03700373 26.23304337 -6.01906769 24.11651315 -6 22 C-4.02 22 -2.04 22 0 22 C0 14.74 0 7.48 0 0 Z " fill="#353143" transform="translate(325,250)"/>
<path d="M0 0 C8.58 0 17.16 0 26 0 C26 3.3 26 6.6 26 10 C29.96 10 33.92 10 38 10 C38 13.63 38 17.26 38 21 C37.34 21 36.68 21 36 21 C36 18.03 36 15.06 36 12 C29.07 11.67 22.14 11.34 15 11 C13.39274365 7.78548731 13.94251815 4.56387464 14 1 C9.38 1 4.76 1 0 1 C0 0.67 0 0.34 0 0 Z " fill="#7F869C" transform="translate(195,384)"/>
<path d="M0 0 C2.97 0 5.94 0 9 0 C9 3.96 9 7.92 9 12 C12.63 12 16.26 12 20 12 C20 15.3 20 18.6 20 22 C20.66 22 21.32 22 22 22 C22.33 22.99 22.66 23.98 23 25 C18.38 25 13.76 25 9 25 C8.23438866 16.96108096 7.87116729 9.07351654 8 1 C5.36 1 2.72 1 0 1 C0 0.67 0 0.34 0 0 Z " fill="#9DA7BE" transform="translate(172,339)"/>
<path d="M0 0 C6.27 0 12.54 0 19 0 C19.33 0.66 19.66 1.32 20 2 C19.34 3.98 18.68 5.96 18 8 C12.06 8 6.12 8 0 8 C0 5.36 0 2.72 0 0 Z " fill="#3E3B50" transform="translate(216,162)"/>
<path d="M0 0 C8.25 0 16.5 0 25 0 C25 0.33 25 0.66 25 1 C20.38 1 15.76 1 11 1 C11.020625 2.464375 11.04125 3.92875 11.0625 5.4375 C11.08392007 6.95832518 11.07179964 8.48071962 11 10 C9.41596476 11.58403524 7.7228362 11.21974935 5.52734375 11.31640625 C4.62822266 11.35830078 3.72910156 11.40019531 2.80273438 11.44335938 C1.38444336 11.50233398 1.38444336 11.50233398 -0.0625 11.5625 C-1.01189453 11.60568359 -1.96128906 11.64886719 -2.93945312 11.69335938 C-5.29281353 11.79979276 -7.64628354 11.90181008 -10 12 C-10.66 13.32 -11.32 14.64 -12 16 C-12 14.02 -12 12.04 -12 10 C-8.04 10 -4.08 10 0 10 C0 6.7 0 3.4 0 0 Z " fill="#7D869B" transform="translate(299,384)"/>
<path d="M0 0 C0.66 0 1.32 0 2 0 C2 6.27 2 12.54 2 19 C4.64 19.33 7.28 19.66 10 20 C10 28.91 10 37.82 10 47 C13.96 47 17.92 47 22 47 C22 54.59 22 62.18 22 70 C26.62 70 31.24 70 36 70 C36 73.96 36 77.92 36 82 C35.67 82 35.34 82 35 82 C35 78.37 35 74.74 35 71 C32.3703125 71.2784375 32.3703125 71.2784375 29.6875 71.5625 C26.24748949 71.92673641 24.3111013 72.10370043 21 71 C21 63.41 21 55.82 21 48 C17.04 48 13.08 48 9 48 C9 39.09 9 30.18 9 21 C6.36 21 3.72 21 1 21 C0 20 0 20 -0.11352539 18.05053711 C-0.10567017 16.8015564 -0.10567017 16.8015564 -0.09765625 15.52734375 C-0.09443359 14.62822266 -0.09121094 13.72910156 -0.08789062 12.80273438 C-0.07951172 11.85720703 -0.07113281 10.91167969 -0.0625 9.9375 C-0.05798828 8.98810547 -0.05347656 8.03871094 -0.04882812 7.06054688 C-0.0370011 4.70696935 -0.02052025 2.35351523 0 0 Z " fill="#585C6D" transform="translate(145,282)"/>
<path d="M0 0 C3.63 0 7.26 0 11 0 C11 3.3 11 6.6 11 10 C7.37 10 3.74 10 0 10 C0 6.7 0 3.4 0 0 Z " fill="#99A3B9" transform="translate(155,319)"/>
<path d="M0 0 C2.31 0 4.62 0 7 0 C7 3.3 7 6.6 7 10 C4.69 10 2.38 10 0 10 C0 6.7 0 3.4 0 0 Z " fill="#99A6B9" transform="translate(357,319)"/>
<path d="M0 0 C4 4 4 4 4.390625 7.015625 C4.34421875 8.08296875 4.2978125 9.1503125 4.25 10.25 C4.21390625 11.32765625 4.1778125 12.4053125 4.140625 13.515625 C4.09421875 14.33546875 4.0478125 15.1553125 4 16 C2.68 16 1.36 16 0 16 C0 10.72 0 5.44 0 0 Z " fill="#3B384B" transform="translate(161,201)"/>
<path d="M0 0 C0.33 0 0.66 0 1 0 C1.16768291 2.93744524 1.33418858 5.87494904 1.5 8.8125 C1.54769531 9.64587891 1.59539062 10.47925781 1.64453125 11.33789062 C1.68964844 12.14033203 1.73476563 12.94277344 1.78125 13.76953125 C1.8440918 14.87711792 1.8440918 14.87711792 1.90820312 16.00708008 C1.98479533 17.66990494 2 19.3354121 2 21 C-1 21 -1 21 -4 20 C-5.66362417 19.65179959 -7.32995171 19.31595508 -9 19 C-9 18.67 -9 18.34 -9 18 C-6.03 18 -3.06 18 0 18 C0 12.06 0 6.12 0 0 Z " fill="#878D9F" transform="translate(353,281)"/>
<path d="M0 0 C3.3 0 6.6 0 10 0 C10 1.32 10 2.64 10 4 C6.25 5.125 6.25 5.125 4 4 C4 3.34 4 2.68 4 2 C2.68 1.34 1.36 0.68 0 0 Z " fill="#A1AAB9" transform="translate(165,299)"/>
<path d="M0 0 C2.31 0 4.62 0 7 0 C4.525 3.465 4.525 3.465 2 7 C1.34 6.67 0.68 6.34 0 6 C0 4.02 0 2.04 0 0 Z " fill="#171428" transform="translate(226,144)"/>
<path d="M0 0 C0.99 0 1.98 0 3 0 C3 0.99 3 1.98 3 3 C1.68 3 0.36 3 -1 3 C-1 5.97 -1 8.94 -1 12 C-1.66 12 -2.32 12 -3 12 C-2.88601335 10.37419034 -2.75844341 8.74932843 -2.625 7.125 C-2.55539062 6.22007812 -2.48578125 5.31515625 -2.4140625 4.3828125 C-2 2 -2 2 0 0 Z " fill="#2D283C" transform="translate(335,288)"/>
<path d="M0 0 C0.99 0.33 1.98 0.66 3 1 C2.34 3.97 1.68 6.94 1 10 C0.67 10 0.34 10 0 10 C0 6.7 0 3.4 0 0 Z " fill="#211C2F" transform="translate(220,268)"/>
</svg>
